<?xml version="1.0" standalone="no"?>
<!DOCTYPE svg PUBLIC "-//W3C//DTD SVG 20010904//EN"
 "http://www.w3.org/TR/2001/REC-SVG-20010904/DTD/svg10.dtd">
<svg version="1.0" xmlns="http://www.w3.org/2000/svg"
 width="300.000000pt" height="300.000000pt" viewBox="0 0 300.000000 300.000000"
 preserveAspectRatio="xMidYMid meet">
<metadata>
Created by potrace 1.10, written by Peter Selinger 2001-2011
</metadata>
<g transform="translate(0.000000,300.000000) scale(0.100000,-0.100000)"
fill="#ffffff" stroke="none">
<path d="M2350 2618 c-134 -113 -248 -176 -492 -274 -291 -116 -452 -212 -503
-298 -34 -58 -70 -204 -85 -346 -7 -63 -16 -119 -20 -123 -4 -4 -10 76 -13
179 -4 103 -10 190 -13 193 -9 9 -124 -118 -183 -203 -99 -143 -172 -328 -185
-468 -18 -180 -15 -168 -41 -156 -18 8 -28 8 -40 -2 -20 -17 -19 -57 3 -70 15
-9 10 -17 -43 -66 -33 -30 -85 -71 -116 -90 l-56 -35 -12 -82 c-7 -45 -26
-147 -42 -227 -28 -143 -28 -145 -9 -164 19 -20 20 -19 57 8 21 16 110 76 198
134 88 58 161 106 163 108 2 1 7 30 12 65 5 34 21 97 36 140 26 74 28 77 50
67 19 -9 28 -8 44 7 25 23 25 33 -2 62 -13 14 -18 27 -12 32 5 5 62 23 127 40
147 39 231 70 327 122 84 46 171 109 165 119 -6 10 -89 18 -256 26 -133 6
-137 6 -148 -15 -15 -28 -9 -30 115 -39 l99 -7 -60 -29 c-33 -15 -91 -39 -130
-52 -83 -29 -306 -87 -312 -81 -9 9 101 158 190 257 181 202 377 364 687 568
263 173 338 229 428 315 39 39 72 65 72 59 0 -23 -54 -160 -85 -217 l-34 -61
-101 -16 c-100 -16 -140 -35 -140 -65 0 -16 34 -16 123 1 81 16 81 16 5 -84
l-53 -69 -126 0 c-108 -1 -130 -4 -150 -19 -15 -13 -20 -25 -15 -37 6 -16 17
-17 123 -12 l117 6 -40 -40 -39 -41 -167 5 c-166 5 -167 5 -189 -19 -12 -13
-21 -26 -18 -28 2 -2 75 -6 161 -8 87 -1 158 -6 158 -9 0 -14 -113 -111 -145
-124 -25 -11 -76 -15 -183 -15 -135 0 -151 -2 -167 -20 -29 -32 -13 -46 62
-53 107 -11 260 -8 310 4 54 14 117 70 265 236 312 349 428 582 445 889 6 108
-1 205 -15 203 -4 0 -50 -37 -102 -81z m77 -120 c-5 -99 -14 -151 -33 -208 -5
-13 -8 -12 -19 3 -7 10 -25 21 -39 25 l-25 7 44 69 c25 38 45 81 45 94 0 29
-26 62 -48 62 -10 0 -3 11 18 30 59 53 64 45 57 -82z m-83 -54 c-39 -66 -134
-165 -229 -239 -88 -68 -295 -209 -300 -203 -2 2 14 61 34 132 l37 129 48 19
c27 10 51 17 53 14 4 -3 -20 -95 -34 -133 -8 -21 24 -15 50 10 17 15 30 45 42
95 9 39 22 72 27 72 17 0 183 98 240 141 63 47 74 35 32 -37z m-304 -81 c0 -5
-7 -17 -15 -28 -14 -18 -16 -18 -32 -2 -15 15 -15 17 8 26 30 12 39 13 39 4z
m-191 -98 c-20 -34 -21 -34 -44 -17 l-24 17 37 17 c51 24 54 23 31 -17z m-49
-41 c0 -3 -21 -71 -46 -150 l-46 -144 -87 -63 c-47 -34 -130 -97 -184 -140
-60 -48 -97 -71 -94 -60 3 10 8 41 12 68 8 64 41 195 62 246 10 25 35 55 71
84 31 24 58 43 59 41 2 -2 -8 -43 -22 -91 -14 -48 -25 -96 -25 -106 0 -18 2
-18 33 -3 31 15 33 20 57 127 l25 112 85 42 c86 43 100 48 100 37z m-222 -79
c-12 -28 -16 -29 -38 -15 -13 9 -12 12 4 25 32 24 48 20 34 -10z m222 -160 c7
-8 19 -15 28 -15 8 0 -5 -16 -29 -35 -62 -49 -72 -45 -47 15 22 54 29 58 48
35z m456 -12 c-8 -16 -21 -37 -30 -48 -13 -17 -15 -18 -16 -3 0 9 -2 23 -5 30
-4 11 36 41 63 47 1 1 -4 -11 -12 -26z m-1062 -139 c9 -23 7 -62 -3 -68 -4 -3
-16 1 -27 8 -10 8 -25 11 -33 8 -17 -6 -8 11 22 46 24 26 33 28 41 6z m-33
-136 c0 -35 4 -97 8 -138 l8 -75 -75 -80 c-41 -44 -97 -111 -125 -150 l-49
-70 6 67 c8 86 47 221 87 301 37 75 121 207 132 207 4 0 7 -28 8 -62z m919 44
c0 -5 -10 -19 -22 -32 -21 -22 -22 -22 -29 -4 -5 14 0 22 20 31 32 15 31 15
31 5z m-750 -96 c6 -8 21 -16 32 -18 16 -2 4 -18 -64 -83 l-83 -80 -3 49 c-3
52 2 66 19 49 6 -6 18 -9 26 -6 17 7 43 55 43 83 0 23 13 26 30 6z m618 -58
c-20 -30 -38 -34 -38 -10 0 18 12 27 44 31 5 0 2 -9 -6 -21z m-398 -331 c0
-12 -67 -57 -84 -57 -3 0 2 16 12 35 13 27 23 35 45 35 16 0 27 -5 27 -13z
m-627 -72 c11 -7 25 -11 33 -8 18 6 17 4 -1 -41 -14 -34 -14 -37 5 -56 11 -11
33 -20 51 -20 31 0 31 0 14 -26 -11 -17 -14 -35 -10 -55 4 -17 2 -29 -3 -29
-6 0 -17 -2 -24 -5 -9 -4 -20 5 -28 20 -20 38 -75 69 -111 61 -27 -5 -29 -3
-29 24 0 20 5 30 15 30 19 0 41 36 49 83 8 41 12 43 39 22z m-24 -207 l38 -21
-28 -66 c-15 -36 -34 -97 -41 -136 l-14 -70 -70 -48 c-103 -71 -142 -104 -156
-133 -14 -28 -82 -73 -93 -62 -12 12 18 119 36 128 12 7 22 37 33 102 9 51 19
103 21 115 3 11 33 41 67 66 35 25 86 68 113 95 28 27 51 49 53 50 2 1 20 -8
41 -20z"/>
<path d="M696 769 c-15 -12 -25 -28 -22 -35 5 -13 -70 -156 -86 -162 -14 -6
-9 -22 7 -22 8 0 15 -8 15 -17 0 -22 31 13 87 98 20 31 46 60 57 65 27 12 32
50 10 75 -22 24 -35 24 -68 -2z"/>
<path d="M700 433 c-34 -23 -41 -35 -28 -50 8 -10 64 -13 235 -13 229 0 263 5
263 38 0 39 -17 42 -235 42 -181 0 -214 -2 -235 -17z"/>
<path d="M1272 438 c-16 -16 -15 -33 4 -52 24 -25 135 -22 159 4 17 19 17 21
0 40 -15 16 -31 20 -85 20 -38 0 -71 -5 -78 -12z"/>
</g>
</svg>
